<?xml version="1.0" encoding="UTF-8"?>
<svg id="thumb" xmlns="http://www.w3.org/2000/svg" viewBox="0 0 400 400">
  <defs>
    <style>
      .cls-1 {
        fill: #969696;
      }
    </style>
  </defs>
  <path class="cls-1" d="M191.7944,363.4897c2.7179.1287,5.453.1969,8.2057.1969s5.4875-.0682,8.2054-.1969c89.1089-2.3948,160.0439-43.5673,160.0439-94.0142,0-8.4989-2.0303-16.73-5.8154-24.5583-3.7455-7.7466-5.7881-16.2092-5.7784-24.8894.0001-.0481.0001-.0962.0001-.1442,0-21.8907-5.3379-42.6342-14.8693-61.2067l9.0277-42.2021c4.1362-19.3361-14.2104-35.8988-33.0242-29.8129l-34.7866,11.2529c-5.2563-3.0206-10.7209-5.7627-16.3713-8.2041l6.533-15.7746c7.1243.1321,13.9355-4.0224,16.8269-11.0038,3.7716-9.1072-.554-19.5475-9.6611-23.3192-9.1072-3.7717-19.5474.5536-23.3191,9.6609-2.8911,6.9814-1.0117,14.7352,4.1199,19.6787l-6.6543,16.0682c-16.9678-5.7778-35.3195-8.9401-54.4772-8.9401s-37.5095,3.1624-54.4774,8.9402l-6.6543-16.0682c5.1316-4.9435,7.011-12.6973,4.1199-19.6787-3.7717-9.1072-14.2119-13.4326-23.3191-9.6609-9.1072,3.7716-13.4327,14.212-9.6611,23.3192,2.8914,6.9814,9.7026,11.136,16.8269,11.0038l6.533,15.7747c-5.6504,2.4414-11.1149,5.1835-16.3712,8.2041l-34.7867-11.2529c-18.8137-6.0859-37.1604,10.4768-33.0242,29.8129l9.0278,42.2024c-9.5312,18.5724-14.8691,39.3159-14.8691,61.2065,0,.0479,0,.0957.0001.1436.0096,8.6803-2.0328,17.1429-5.7784,24.8895-3.7853,7.8286-5.8157,16.0598-5.8157,24.5588,0,50.4469,70.9346,91.6194,160.0439,94.0142Z"/>
</svg>